<mxfile host="app.diagrams.net" modified="2022-07-06T10:12:51.759Z" agent="5.0 (Windows NT 10.0; Win64; x64) AppleWebKit/537.36 (KHTML, like Gecko) Chrome/103.0.5060.66 Safari/537.36 Edg/103.0.1264.44" etag="pocICj5HRayOu4s71I73" version="20.0.4" type="github">
  <diagram id="iQF-7EETvvd10qyqMGu-" name="Page-1">
    <mxGraphModel dx="1038" dy="579" grid="1" gridSize="10" guides="1" tooltips="1" connect="1" arrows="1" fold="1" page="1" pageScale="1" pageWidth="850" pageHeight="1100" math="0" shadow="0">
      <root>
        <mxCell id="0" />
        <mxCell id="1" parent="0" />
        <mxCell id="QBvRnoSDZ9DNLY7x9FU6-1" value="" style="rounded=0;whiteSpace=wrap;html=1;" vertex="1" parent="1">
          <mxGeometry x="40" y="120" width="860" height="550" as="geometry" />
        </mxCell>
        <mxCell id="QBvRnoSDZ9DNLY7x9FU6-8" value="" style="rounded=0;whiteSpace=wrap;html=1;" vertex="1" parent="1">
          <mxGeometry x="60" y="150" width="500" height="380" as="geometry" />
        </mxCell>
        <mxCell id="QBvRnoSDZ9DNLY7x9FU6-10" value="Component" style="rounded=0;whiteSpace=wrap;html=1;fillColor=#dae8fc;strokeColor=#6c8ebf;" vertex="1" parent="1">
          <mxGeometry x="80" y="315" width="105" height="50" as="geometry" />
        </mxCell>
        <mxCell id="QBvRnoSDZ9DNLY7x9FU6-11" value="Static Resource" style="rounded=0;whiteSpace=wrap;html=1;fillColor=#dae8fc;strokeColor=#6c8ebf;" vertex="1" parent="1">
          <mxGeometry x="80" y="410" width="105" height="50" as="geometry" />
        </mxCell>
        <mxCell id="QBvRnoSDZ9DNLY7x9FU6-12" value="Action" style="rounded=0;whiteSpace=wrap;html=1;fillColor=#d5e8d4;strokeColor=#82b366;" vertex="1" parent="1">
          <mxGeometry x="270" y="220" width="105" height="50" as="geometry" />
        </mxCell>
        <mxCell id="QBvRnoSDZ9DNLY7x9FU6-13" value="Store" style="rounded=0;whiteSpace=wrap;html=1;fillColor=#d5e8d4;strokeColor=#82b366;" vertex="1" parent="1">
          <mxGeometry x="270" y="420" width="105" height="50" as="geometry" />
        </mxCell>
        <mxCell id="QBvRnoSDZ9DNLY7x9FU6-14" value="Reducer" style="rounded=0;whiteSpace=wrap;html=1;fillColor=#d5e8d4;strokeColor=#82b366;" vertex="1" parent="1">
          <mxGeometry x="270" y="320" width="105" height="50" as="geometry" />
        </mxCell>
        <mxCell id="QBvRnoSDZ9DNLY7x9FU6-15" value="App/Router" style="rounded=0;whiteSpace=wrap;html=1;fillColor=#dae8fc;strokeColor=#6c8ebf;" vertex="1" parent="1">
          <mxGeometry x="80" y="220" width="105" height="50" as="geometry" />
        </mxCell>
        <mxCell id="QBvRnoSDZ9DNLY7x9FU6-16" value="" style="endArrow=classic;html=1;rounded=0;exitX=1;exitY=0.25;exitDx=0;exitDy=0;entryX=0;entryY=0.5;entryDx=0;entryDy=0;fillColor=#f5f5f5;strokeColor=#666666;fontColor=#CCFFE6;" edge="1" parent="1" source="QBvRnoSDZ9DNLY7x9FU6-10" target="QBvRnoSDZ9DNLY7x9FU6-12">
          <mxGeometry width="50" height="50" relative="1" as="geometry">
            <mxPoint x="400" y="400" as="sourcePoint" />
            <mxPoint x="450" y="350" as="targetPoint" />
          </mxGeometry>
        </mxCell>
        <mxCell id="QBvRnoSDZ9DNLY7x9FU6-19" value="" style="endArrow=classic;html=1;rounded=0;entryX=0.5;entryY=0;entryDx=0;entryDy=0;exitX=0.5;exitY=1;exitDx=0;exitDy=0;" edge="1" parent="1" source="QBvRnoSDZ9DNLY7x9FU6-14" target="QBvRnoSDZ9DNLY7x9FU6-13">
          <mxGeometry width="50" height="50" relative="1" as="geometry">
            <mxPoint x="383" y="370" as="sourcePoint" />
            <mxPoint x="450" y="350" as="targetPoint" />
          </mxGeometry>
        </mxCell>
        <mxCell id="QBvRnoSDZ9DNLY7x9FU6-20" value="" style="endArrow=classic;html=1;rounded=0;exitX=0.5;exitY=1;exitDx=0;exitDy=0;entryX=0.5;entryY=0;entryDx=0;entryDy=0;" edge="1" parent="1" source="QBvRnoSDZ9DNLY7x9FU6-12" target="QBvRnoSDZ9DNLY7x9FU6-14">
          <mxGeometry width="50" height="50" relative="1" as="geometry">
            <mxPoint x="383" y="270" as="sourcePoint" />
            <mxPoint x="383" y="320" as="targetPoint" />
          </mxGeometry>
        </mxCell>
        <mxCell id="QBvRnoSDZ9DNLY7x9FU6-21" value="Api" style="rounded=0;whiteSpace=wrap;html=1;fillColor=#d5e8d4;strokeColor=#82b366;" vertex="1" parent="1">
          <mxGeometry x="417.5" y="220" width="105" height="50" as="geometry" />
        </mxCell>
        <mxCell id="QBvRnoSDZ9DNLY7x9FU6-23" value="" style="endArrow=classic;html=1;rounded=0;exitX=0;exitY=0.5;exitDx=0;exitDy=0;entryX=1;entryY=0.75;entryDx=0;entryDy=0;" edge="1" parent="1" source="QBvRnoSDZ9DNLY7x9FU6-13" target="QBvRnoSDZ9DNLY7x9FU6-10">
          <mxGeometry width="50" height="50" relative="1" as="geometry">
            <mxPoint x="362.5" y="380" as="sourcePoint" />
            <mxPoint x="200" y="350" as="targetPoint" />
          </mxGeometry>
        </mxCell>
        <mxCell id="QBvRnoSDZ9DNLY7x9FU6-24" value="" style="endArrow=classic;html=1;rounded=0;fontColor=#CCFFE6;exitX=1;exitY=0.25;exitDx=0;exitDy=0;entryX=0;entryY=0.25;entryDx=0;entryDy=0;" edge="1" parent="1" source="QBvRnoSDZ9DNLY7x9FU6-12" target="QBvRnoSDZ9DNLY7x9FU6-21">
          <mxGeometry width="50" height="50" relative="1" as="geometry">
            <mxPoint x="400" y="400" as="sourcePoint" />
            <mxPoint x="450" y="350" as="targetPoint" />
          </mxGeometry>
        </mxCell>
        <mxCell id="QBvRnoSDZ9DNLY7x9FU6-25" value="" style="endArrow=classic;html=1;rounded=0;fontColor=#CCFFE6;exitX=0;exitY=0.75;exitDx=0;exitDy=0;entryX=1;entryY=0.75;entryDx=0;entryDy=0;" edge="1" parent="1" source="QBvRnoSDZ9DNLY7x9FU6-21" target="QBvRnoSDZ9DNLY7x9FU6-12">
          <mxGeometry width="50" height="50" relative="1" as="geometry">
            <mxPoint x="400" y="400" as="sourcePoint" />
            <mxPoint x="450" y="350" as="targetPoint" />
          </mxGeometry>
        </mxCell>
        <mxCell id="QBvRnoSDZ9DNLY7x9FU6-26" value="Client side" style="text;html=1;strokeColor=none;fillColor=none;align=center;verticalAlign=middle;whiteSpace=wrap;rounded=0;fontColor=#000000;" vertex="1" parent="1">
          <mxGeometry x="292.5" y="160" width="60" height="30" as="geometry" />
        </mxCell>
        <mxCell id="QBvRnoSDZ9DNLY7x9FU6-27" value="" style="rounded=0;whiteSpace=wrap;html=1;fontColor=#000000;" vertex="1" parent="1">
          <mxGeometry x="630" y="150" width="250" height="380" as="geometry" />
        </mxCell>
        <mxCell id="QBvRnoSDZ9DNLY7x9FU6-29" value="Route" style="rounded=0;whiteSpace=wrap;html=1;fillColor=#fff2cc;strokeColor=#d6b656;" vertex="1" parent="1">
          <mxGeometry x="660" y="220" width="105" height="50" as="geometry" />
        </mxCell>
        <mxCell id="QBvRnoSDZ9DNLY7x9FU6-30" value="Model" style="rounded=0;whiteSpace=wrap;html=1;fillColor=#fff2cc;strokeColor=#d6b656;" vertex="1" parent="1">
          <mxGeometry x="657.5" y="415" width="110" height="55" as="geometry" />
        </mxCell>
        <mxCell id="QBvRnoSDZ9DNLY7x9FU6-31" value="Controller" style="rounded=0;whiteSpace=wrap;html=1;fillColor=#fff2cc;strokeColor=#d6b656;" vertex="1" parent="1">
          <mxGeometry x="660" y="315" width="105" height="50" as="geometry" />
        </mxCell>
        <mxCell id="QBvRnoSDZ9DNLY7x9FU6-32" value="Mongoose&lt;br&gt;ODM" style="rounded=0;whiteSpace=wrap;html=1;fillColor=#fff2cc;strokeColor=#d6b656;" vertex="1" parent="1">
          <mxGeometry x="800" y="220" width="60" height="250" as="geometry" />
        </mxCell>
        <mxCell id="QBvRnoSDZ9DNLY7x9FU6-34" value="" style="endArrow=classic;html=1;rounded=0;fontColor=#000000;exitX=0.5;exitY=1;exitDx=0;exitDy=0;" edge="1" parent="1" source="QBvRnoSDZ9DNLY7x9FU6-31" target="QBvRnoSDZ9DNLY7x9FU6-30">
          <mxGeometry width="50" height="50" relative="1" as="geometry">
            <mxPoint x="725" y="360" as="sourcePoint" />
            <mxPoint x="450" y="340" as="targetPoint" />
          </mxGeometry>
        </mxCell>
        <mxCell id="QBvRnoSDZ9DNLY7x9FU6-35" value="" style="endArrow=classic;html=1;rounded=0;fontColor=#000000;exitX=0.5;exitY=1;exitDx=0;exitDy=0;" edge="1" parent="1" source="QBvRnoSDZ9DNLY7x9FU6-29" target="QBvRnoSDZ9DNLY7x9FU6-31">
          <mxGeometry width="50" height="50" relative="1" as="geometry">
            <mxPoint x="400" y="390" as="sourcePoint" />
            <mxPoint x="450" y="340" as="targetPoint" />
          </mxGeometry>
        </mxCell>
        <mxCell id="QBvRnoSDZ9DNLY7x9FU6-36" value="" style="rounded=0;whiteSpace=wrap;html=1;fontColor=#000000;" vertex="1" parent="1">
          <mxGeometry x="630" y="550" width="250" height="100" as="geometry" />
        </mxCell>
        <mxCell id="QBvRnoSDZ9DNLY7x9FU6-37" value="Server side" style="text;html=1;strokeColor=none;fillColor=none;align=center;verticalAlign=middle;whiteSpace=wrap;rounded=0;fontColor=#000000;" vertex="1" parent="1">
          <mxGeometry x="730" y="160" width="70" height="30" as="geometry" />
        </mxCell>
        <mxCell id="QBvRnoSDZ9DNLY7x9FU6-38" value="MongoDB&amp;nbsp;" style="rounded=0;whiteSpace=wrap;html=1;fillColor=#d5e8d4;strokeColor=#82b366;" vertex="1" parent="1">
          <mxGeometry x="680" y="580" width="120" height="60" as="geometry" />
        </mxCell>
        <mxCell id="QBvRnoSDZ9DNLY7x9FU6-39" value="" style="endArrow=classic;startArrow=classic;html=1;rounded=0;fontColor=#000000;exitX=1;exitY=0.5;exitDx=0;exitDy=0;entryX=-0.007;entryY=0.889;entryDx=0;entryDy=0;entryPerimeter=0;" edge="1" parent="1" source="QBvRnoSDZ9DNLY7x9FU6-30" target="QBvRnoSDZ9DNLY7x9FU6-32">
          <mxGeometry width="50" height="50" relative="1" as="geometry">
            <mxPoint x="400" y="380" as="sourcePoint" />
            <mxPoint x="800" y="440" as="targetPoint" />
          </mxGeometry>
        </mxCell>
        <mxCell id="QBvRnoSDZ9DNLY7x9FU6-41" value="" style="endArrow=classic;startArrow=classic;html=1;rounded=0;fontColor=#000000;exitX=0.5;exitY=1;exitDx=0;exitDy=0;entryX=1;entryY=0.5;entryDx=0;entryDy=0;" edge="1" parent="1" source="QBvRnoSDZ9DNLY7x9FU6-32" target="QBvRnoSDZ9DNLY7x9FU6-38">
          <mxGeometry width="50" height="50" relative="1" as="geometry">
            <mxPoint x="400" y="380" as="sourcePoint" />
            <mxPoint x="450" y="330" as="targetPoint" />
            <Array as="points">
              <mxPoint x="830" y="610" />
            </Array>
          </mxGeometry>
        </mxCell>
        <mxCell id="QBvRnoSDZ9DNLY7x9FU6-42" value="" style="endArrow=classic;startArrow=classic;html=1;rounded=0;fontColor=#000000;exitX=0.5;exitY=1;exitDx=0;exitDy=0;" edge="1" parent="1" source="QBvRnoSDZ9DNLY7x9FU6-10" target="QBvRnoSDZ9DNLY7x9FU6-11">
          <mxGeometry width="50" height="50" relative="1" as="geometry">
            <mxPoint x="163" y="360" as="sourcePoint" />
            <mxPoint x="450" y="330" as="targetPoint" />
          </mxGeometry>
        </mxCell>
        <mxCell id="QBvRnoSDZ9DNLY7x9FU6-45" value="" style="endArrow=classic;html=1;rounded=0;fontColor=#000000;exitX=0.5;exitY=1;exitDx=0;exitDy=0;" edge="1" parent="1" source="QBvRnoSDZ9DNLY7x9FU6-15" target="QBvRnoSDZ9DNLY7x9FU6-10">
          <mxGeometry width="50" height="50" relative="1" as="geometry">
            <mxPoint x="400" y="380" as="sourcePoint" />
            <mxPoint x="450" y="330" as="targetPoint" />
          </mxGeometry>
        </mxCell>
        <mxCell id="QBvRnoSDZ9DNLY7x9FU6-46" value="" style="endArrow=classic;html=1;rounded=0;fontColor=#000000;" edge="1" parent="1">
          <mxGeometry width="50" height="50" relative="1" as="geometry">
            <mxPoint x="560" y="233" as="sourcePoint" />
            <mxPoint x="630" y="233" as="targetPoint" />
          </mxGeometry>
        </mxCell>
        <mxCell id="QBvRnoSDZ9DNLY7x9FU6-50" value="" style="endArrow=classic;html=1;rounded=0;exitX=0;exitY=0.316;exitDx=0;exitDy=0;exitPerimeter=0;" edge="1" parent="1" source="QBvRnoSDZ9DNLY7x9FU6-27">
          <mxGeometry width="50" height="50" relative="1" as="geometry">
            <mxPoint x="555" y="437.5" as="sourcePoint" />
            <mxPoint x="560" y="270" as="targetPoint" />
          </mxGeometry>
        </mxCell>
        <mxCell id="QBvRnoSDZ9DNLY7x9FU6-52" value="Http" style="text;html=1;strokeColor=none;fillColor=none;align=center;verticalAlign=middle;whiteSpace=wrap;rounded=0;fontColor=#000000;" vertex="1" parent="1">
          <mxGeometry x="560" y="200" width="60" height="30" as="geometry" />
        </mxCell>
        <mxCell id="QBvRnoSDZ9DNLY7x9FU6-57" value="Database" style="text;html=1;strokeColor=none;fillColor=none;align=center;verticalAlign=middle;whiteSpace=wrap;rounded=0;fontColor=#000000;" vertex="1" parent="1">
          <mxGeometry x="710" y="550" width="70" height="30" as="geometry" />
        </mxCell>
        <mxCell id="QBvRnoSDZ9DNLY7x9FU6-58" value="" style="rounded=0;whiteSpace=wrap;html=1;fontColor=#000000;" vertex="1" parent="1">
          <mxGeometry x="240" y="750" width="560" height="710" as="geometry" />
        </mxCell>
        <mxCell id="QBvRnoSDZ9DNLY7x9FU6-61" value="Người dùng" style="rounded=0;whiteSpace=wrap;html=1;fontColor=#000000;" vertex="1" parent="1">
          <mxGeometry x="240" y="750" width="280" height="40" as="geometry" />
        </mxCell>
        <mxCell id="QBvRnoSDZ9DNLY7x9FU6-62" value="Hệ thống" style="rounded=0;whiteSpace=wrap;html=1;fontColor=#000000;" vertex="1" parent="1">
          <mxGeometry x="520" y="750" width="280" height="40" as="geometry" />
        </mxCell>
        <mxCell id="QBvRnoSDZ9DNLY7x9FU6-63" value="" style="rounded=0;whiteSpace=wrap;html=1;fontColor=#000000;" vertex="1" parent="1">
          <mxGeometry x="240" y="790" width="280" height="670" as="geometry" />
        </mxCell>
      </root>
    </mxGraphModel>
  </diagram>
</mxfile>
